<?xml version="1.0" standalone="no"?>
<!DOCTYPE svg PUBLIC "-//W3C//DTD SVG 20010904//EN"
 "http://www.w3.org/TR/2001/REC-SVG-20010904/DTD/svg10.dtd">
<svg version="1.0" xmlns="http://www.w3.org/2000/svg"
 width="56.000000pt" height="77.000000pt" viewBox="0 0 56.000000 77.000000"
 preserveAspectRatio="xMidYMid meet">

<g transform="translate(0.000000,77.000000) scale(0.100000,-0.100000)"
fill="#000000" stroke="none">
<path d="M251 643 c-19 -4 -21 -7 -10 -15 10 -7 6 -8 -14 -3 -25 5 -35 -1 -73
-38 -41 -42 -44 -48 -44 -100 0 -31 5 -68 12 -84 l11 -28 8 40 c16 85 27 126
34 133 8 8 212 20 238 14 9 -2 19 -16 22 -31 3 -14 10 -46 17 -71 15 -60 21
-125 14 -153 -3 -12 -18 -30 -34 -39 -26 -16 -31 -16 -42 -3 -7 8 -21 15 -31
15 -11 0 -19 7 -19 16 0 12 -6 15 -26 10 -14 -4 -32 -2 -39 4 -9 8 -14 6 -18
-9 -2 -11 -15 -21 -28 -23 -19 -2 -24 -10 -26 -33 0 -16 -2 -34 -2 -39 -1 -5
-8 -3 -16 4 -26 21 -30 2 -7 -30 12 -16 22 -33 22 -37 0 -4 23 -32 50 -62 28
-29 50 -60 50 -67 0 -20 27 -17 50 6 22 22 35 27 24 9 -5 -9 1 -10 20 -5 19 5
26 3 26 -9 0 -10 10 -15 34 -15 30 0 35 4 39 27 4 25 4 95 -1 145 -1 9 -12 19
-24 21 -22 4 -22 4 2 6 l25 1 -24 19 c-20 15 -21 21 -12 39 6 12 16 31 21 43
6 11 8 29 5 40 -4 10 -3 19 2 19 8 0 7 124 -2 167 -6 29 -59 80 -100 97 -39
17 -101 25 -134 19z m84 -413 c0 -10 -12 -16 -37 -18 -39 -3 -50 -15 -22 -26
31 -12 53 -6 73 22 l20 27 -3 -28 c-1 -15 -6 -30 -9 -34 -12 -12 -110 -13
-124 -2 -21 18 -16 55 10 67 32 16 92 11 92 -8z"/>
<path d="M175 440 c-3 -5 3 -10 14 -10 12 0 21 -4 21 -10 0 -5 -7 -7 -15 -4
-9 4 -15 0 -15 -10 0 -9 7 -16 16 -16 8 0 12 -4 9 -10 -3 -6 4 -10 18 -10 43
0 77 60 41 74 -25 10 -82 7 -89 -4z"/>
<path d="M353 443 c-17 -3 -23 -11 -23 -32 0 -15 5 -32 12 -39 14 -14 68 -16
68 -2 0 6 7 10 15 10 22 0 19 47 -4 60 -20 10 -29 11 -68 3z"/>
<path d="M116 343 c-6 -14 -5 -15 5 -6 7 7 10 15 7 18 -3 3 -9 -2 -12 -12z"/>
<path d="M140 180 c0 -5 5 -10 10 -10 6 0 10 5 10 10 0 6 -4 10 -10 10 -5 0
-10 -4 -10 -10z"/>
<path d="M111 151 c-8 -5 -21 -7 -29 -3 -12 4 -14 -1 -10 -21 3 -15 1 -24 -3
-21 -5 3 -9 1 -9 -5 0 -5 9 -13 20 -16 11 -4 18 -10 15 -15 -3 -5 -13 -6 -21
-3 -9 3 -19 1 -23 -6 -4 -7 -18 -13 -29 -14 -12 -1 -22 -6 -22 -12 0 -23 26
-35 77 -35 46 0 52 2 46 17 -3 10 -3 15 2 11 17 -16 50 79 40 113 -7 20 -31
25 -54 10z"/>
</g>
</svg>
